<?xml version="1.0" encoding="UTF-8"?><svg id="Calque_1" xmlns="http://www.w3.org/2000/svg" viewBox="0 0 970.42 348.67"><defs><style>.cls-1,.cls-2{stroke-width:0px;}.cls-2{fill:#25d366;}</style></defs><path class="cls-2" d="M903.42,116.2c33.27,4.94,64.14-19.21,66.83-53.31,2.27-28.78-17.39-55.29-45.59-61.49-33.42-7.34-65.5,15.18-70.44,48.45-1.62,10.91-.49,20.58,3.47,30.06l-12.04,27.7,29.86-3.44c7.95,6.61,16.93,10.4,27.91,12.03Z"/><path class="cls-1" d="M212.21,246.29c-30.25,0-52.12-19.55-58.17-51.66-19.08,34.44-44.21,51.66-75.39,51.66-35.83,0-56.31-21.87-56.31-54.91,0-9.77.93-19.55,3.26-29.32l16.75-78.65c1.39-7.91,2.33-13.5,2.33-17.68,0-7.91-2.79-11.63-10.24-11.63-11.64,0-19.08,12.57-23.27,41.88H0C3.72,53.62,15.82,27.56,50.73,27.56c22.34,0,33.51,12.1,33.51,36.3,0,6.51-.93,14.43-2.79,23.27l-14.43,65.62c-3.72,17.22-5.59,30.25-5.59,39.56,0,22.34,9.77,33.51,28.85,33.51,22.8,0,45.14-25.13,60.5-58.64l2.33-15.82,19.54-119.14h39.56l-16.75,110.29c-2.33,16.75-3.72,29.78-3.72,39.56,0,26.06,14.89,43.75,31.18,43.75,38.16,0,68.41-56.78,71.21-128.91-23.74-9.31-37.23-29.32-37.23-46.07,0-13.5,9.77-23.27,24.67-23.27,24.2,0,31.18,20.94,31.18,66.09.47,78.65-37.23,154.04-100.52,152.64Z"/><path class="cls-1" d="M572.87,163.91c-6.98,49.8-21.41,82.37-49.79,82.37-17.22,0-26.99-12.57-26.99-32.58,0-5.59.47-10.71,1.86-15.82h-4.19c-16.29,32.11-39.56,48.4-69.81,48.4-46.54,0-75.39-33.04-75.39-88.89-.93-67.95,50.26-131.24,113.09-129.84,24.66,0,48.87,10.24,62.36,25.6l19.55-20.94h6.98l-20.48,127.98c-3.26,20.48-5.12,33.97-5.12,40.02,0,10.7,3.72,15.82,11.17,15.82,11.63,0,19.54-14.89,25.6-52.12h11.17ZM503.53,80.61c-3.72-20.48-17.68-36.77-39.56-36.77-43.75-1.86-74.93,60.97-74.46,119.6,0,40.49,14.89,63.29,42.82,63.29,22.8,0,40.95-16.75,55.38-49.79l15.82-96.33Z"/><path class="cls-1" d="M704.1,246.29c-15.36,0-33.04-4.65-47.93-13.96l-19.08,116.35h-39.09l42.82-265.27c.93-5.58,1.4-10.7,1.4-14.89,0-9.77-3.72-14.43-11.17-14.43-11.64,0-19.08,12.57-23.27,41.88h-11.17c3.72-39.56,19.08-68.41,47.47-68.41,20.94,0,31.18,11.64,31.18,34.44,0,5.12,0,8.84-.47,11.17h3.72c16.29-30.25,40.02-45.61,70.27-45.61,42.35,0,73.53,27.92,73.53,80.51,0,77.72-46.07,138.22-118.21,138.22ZM739.47,46.17c-22.34,0-47.93,25.6-62.83,60.97l-13.96,86.56c3.26,20.48,17.68,36.3,41.42,36.3,48.87,0,77.25-58.17,77.25-127.98,0-35.84-15.82-55.85-41.88-55.85Z"/></svg>